<svg xmlns="http://www.w3.org/2000/svg" xmlns:xlink="http://www.w3.org/1999/xlink" width="256" height="298" preserveAspectRatio="xMidYMid" version="1.1" viewBox="0 0 256 298"><g><polyline fill="#00B46F" points="192 112.384 256 150.327 256 224.768 192 261.248 128 224.768 128 150.345"/><polyline fill="#2294D9" points="128 0 192 37.943 192 112.384 128 148.864 64 112.384 64 37.961"/><polyline fill="#2294D9" points="192 37.943 256 75.886 256 150.336 192 186.816 128 150.336 128 75.886"/><polyline fill="#F85551" points="64 37.943 128 75.886 128 150.336 64 186.816 0 150.336 0 75.886"/><polyline fill="#F85551" points="64 112.384 128 150.327 128 224.768 64 261.248 0 224.768 0 150.345"/><polyline fill="#00B46F" points="128 148.873 192 186.816 192 261.257 128 297.737 64 261.257 64 186.816"/><path fill="#30B2E9" d="M192,37.9428571 L128,75.8857143 L64,37.9428571 L128,0 L192,37.9428571 Z M256,75.8857143 L192,113.846857 L128,75.904 L192,37.9611429 L256,75.904 L256,75.8857143 Z"/><polyline fill="#00AB64" points="128 223.305 128 148.882 64 186.825 64 261.248"/><polyline fill="#00CE8E" points="192 186.816 128 223.296 64 186.816 128 148.873"/><polygon fill="#00C783" points="128 223.305 64 186.825 128 148.882"/><polygon fill="#2CAEE7" points="128 75.886 64 37.943 128 0"/><polyline fill="#FB716C" points="128 75.886 64 113.847 0 75.904 64 37.961"/><polyline fill="#1F8ED6" points="256 150.336 192 186.816 128 148.873 192 113.856"/><polygon fill="#F64743" points="63.013 260.626 0 224.146 63.013 186.185 63.013 260.626"/><polyline fill="#F96560" points="64 113.847 64 37.961 128 75.904 128 148.864"/><polyline fill="#B71D1D" points="128 148.873 128 75.886 64 113.847 64 186.807"/><polygon fill="#B21A1A" points="128 148.873 64 113.856 128 75.886"/><polygon fill="#10161A" fill-opacity=".2" points="256 224.768 192 186.825 256 150.345 256 224.768" style="mix-blend-mode:soft-light"/><path fill="#007233" d="M192,261.257143 L192,186.816 L128,223.296 L128,297.746286 L192,261.266286 L192,261.257143 Z M256,224.777143 L256,150.336 L192,186.816 L192,261.257143 L256,224.777143 Z"/><polygon fill="#00682C" points="256 224.768 192 186.825 256 150.345 256 224.768"/><polyline fill="#0759BA" points="256 150.336 256 75.886 192 113.847 192 186.807"/><polygon fill="#0860BF" points="256 150.336 192 113.856 256 75.886"/><path fill="#FEBCB7" d="M0,75.8857143 L64,112.384 L128,75.904 L65.4628571,114.578286 L64,186.514286 C64,186.541714 64,186.514286 64,186.514286 L62.5371429,114.56 L0,75.8857143 Z" opacity=".78"/><polyline fill="#4EDCF8" points="128 75.886 192 112.384 256 75.904 193.463 114.578 192 186.807 190.537 114.578" opacity=".78"/><path fill="#00F3C9" d="M64,186.816 L128,221.851429 L192,186.816 L129.462857,224.027429 L128,297.691429 C128,297.718857 128,297.691429 128,297.691429 L126.537143,224.036571 L64,186.825143 L64,186.816 Z" opacity=".78"/></g></svg>