<svg xmlns="http://www.w3.org/2000/svg" xmlns:xlink="http://www.w3.org/1999/xlink" width="256" height="256" preserveAspectRatio="xMidYMid" version="1.1" viewBox="0 0 256 256"><defs><linearGradient id="linearGradient-1" x1="50%" x2="50%" y1="0%" y2="100%"><stop offset="0%" stop-color="#29ABE2"/><stop offset="47.57%" stop-color="#28A9E1"/><stop offset="66.39%" stop-color="#23A2DC"/><stop offset="80.12%" stop-color="#1A96D4"/><stop offset="91.3%" stop-color="#0E85C9"/><stop offset="100%" stop-color="#0071BC"/></linearGradient><filter id="filter-2" width="200%" height="200%" x="-50%" y="-50%" filterUnits="objectBoundingBox"><feOffset dx="0" dy="2" in="SourceAlpha" result="shadowOffsetOuter1"/><feGaussianBlur in="shadowOffsetOuter1" result="shadowBlurOuter1" stdDeviation="2"/><feColorMatrix in="shadowBlurOuter1" result="shadowMatrixOuter1" type="matrix" values="0 0 0 0 0 0 0 0 0 0 0 0 0 0 0 0 0 0 0.273992301 0"/><feMerge><feMergeNode in="shadowMatrixOuter1"/><feMergeNode in="SourceGraphic"/></feMerge></filter><filter id="filter-3" width="200%" height="200%" x="-50%" y="-50%" filterUnits="objectBoundingBox"><feOffset dx="0" dy="2" in="SourceAlpha" result="shadowOffsetOuter1"/><feGaussianBlur in="shadowOffsetOuter1" result="shadowBlurOuter1" stdDeviation="2"/><feColorMatrix in="shadowBlurOuter1" result="shadowMatrixOuter1" type="matrix" values="0 0 0 0 0 0 0 0 0 0 0 0 0 0 0 0 0 0 0.273992301 0"/><feMerge><feMergeNode in="shadowMatrixOuter1"/><feMergeNode in="SourceGraphic"/></feMerge></filter></defs><g><path fill="#115A91" d="M256,204.8 C256,232.96 232.96,256 204.8,256 L51.2,256 C23.04,256 0,232.96 0,204.8 L0,51.2 C0,23.04 23.04,0 51.2,0 L204.8,0 C232.96,0 256,23.04 256,51.2 L256,204.8 L256,204.8 Z"/><path fill="#FFF" d="M204.8,28.16 C217.50528,28.16 227.84,38.49472 227.84,51.2 L227.84,179.2 C227.84,191.90528 217.50528,202.24 204.8,202.24 L51.2,202.24 C38.49472,202.24 28.16,191.90528 28.16,179.2 L28.16,51.2 C28.16,38.49472 38.49472,28.16 51.2,28.16 L204.8,28.16"/><path fill="url(#linearGradient-1)" d="M204.8,28.16 C217.50528,28.16 227.84,38.49472 227.84,51.2 L227.84,179.2 C227.84,191.90528 217.50528,202.24 204.8,202.24 L51.2,202.24 C38.49472,202.24 28.16,191.90528 28.16,179.2 L28.16,51.2 C28.16,38.49472 38.49472,28.16 51.2,28.16 L204.8,28.16 L204.8,28.16 Z M204.8,0 L51.2,0 C23.04,0 0,23.04 0,51.2 L0,179.2 C0,207.36 23.04,230.4 51.2,230.4 L204.8,230.4 C232.96,230.4 256,207.36 256,179.2 L256,51.2 C256,23.04 232.96,0 204.8,0 L204.8,0 L204.8,0 Z"/><g fill="#4D4D4D"><path d="M143.36,0 L143.36,122.88 L79.36,122.88 L79.36,92.16 L115.2,92.16 L115.2,28.16 L79.36,28.16 L79.36,0 L143.36,0 L143.36,0 Z" filter="url(#filter-2)" transform="translate(56.320000, 53.760000)"/><path d="M64,0 L64,28.16 L28.16,28.16 L28.16,92.16 L64,92.16 L64,122.88 L0,122.88 L0,0 L64,0 L64,0 Z" filter="url(#filter-3)" transform="translate(56.320000, 53.760000)"/></g></g></svg>