<svg xmlns="http://www.w3.org/2000/svg" xmlns:xlink="http://www.w3.org/1999/xlink" width="256" height="317" preserveAspectRatio="xMidYMid" version="1.1" viewBox="0 0 256 317"><defs><linearGradient id="linearGradient-1" x1="16.107%" x2="72.709%" y1="58.187%" y2="72.89%"><stop offset="0%" stop-color="#FFD441"/><stop offset="100%" stop-color="#FFB047"/></linearGradient><linearGradient id="linearGradient-2" x1="70.213%" x2="100%" y1="65.797%" y2="0%"><stop offset="0%" stop-color="#FFD754"/><stop offset="100%" stop-color="#FFB532"/></linearGradient><linearGradient id="linearGradient-3" x1="22.178%" x2="22.178%" y1="66.138%" y2="9.316%"><stop offset="0%" stop-color="#FFD642"/><stop offset="0%" stop-color="#FFD441"/><stop offset="100%" stop-color="#FFB532"/></linearGradient><linearGradient id="linearGradient-4" x1="88.953%" x2="12.579%" y1="24.298%" y2="6.966%"><stop offset="0%" stop-color="#FFD441"/><stop offset="100%" stop-color="#FFA829"/></linearGradient></defs><g><path fill="#FFDF51" fill-opacity=".7" d="M211.6896,309.978667 L211.6896,228.120533 L130.488533,228.120533 L211.6896,309.978667"/><path fill="#FF8900" fill-opacity=".7" d="M220.801067,263.565867 L220.801067,175.032533 L132.9792,175.032533 L220.801067,263.565867"/><path fill="url(#linearGradient-1)" fill-opacity=".7" d="M167.466667,228.1184 L167.466667,316.651733 L255.288533,316.651733 L167.466667,228.1184"/><path fill="#FFDF4F" fill-opacity=".7" d="M202.443733,180.962133 L202.443733,110.935467 L132.977067,110.935467 L202.443733,180.962133"/><path fill="url(#linearGradient-2)" fill-opacity=".8" d="M235.424,164.266667 L235.424,75.7333333 L147.602133,75.7333333 L235.424,164.266667"/><path fill="url(#linearGradient-3)" fill-opacity=".8" d="M85.7354667,0 L85.7354667,88.5333333 L173.557333,88.5333333 L85.7354667,0"/><path fill="url(#linearGradient-4)" fill-opacity=".88" d="M106.333867,138.666667 L106.333867,50.1333333 L0.135466667,50.1333333 L87.5776,138.6848 L106.333867,138.666667"/><path fill="#FFB700" fill-opacity=".7" d="M106.333867,316.174933 L106.333867,209.066667 L0.135466667,209.066667 L106.333867,316.174933"/><path fill="#FFB700" fill-opacity=".5" d="M106.357333,227.466667 L106.357333,138.933333 L18.5354667,138.933333 L106.357333,227.466667"/><path fill="#FFCD25" fill-opacity=".7" d="M132.976,110.933333 L132.976,199.466667 L220.798933,199.466667 L132.976,110.933333"/><path fill="#FF8900" fill-opacity=".7" d="M106.135467,120.8992 L106.135467,32.3658667 L18.3125333,32.3658667 L106.135467,120.8992"/><path fill="#FF8900" fill-opacity=".7" d="M130.488533,228.1184 L130.488533,316.651733 L218.311467,316.651733 L130.488533,228.1184"/></g></svg>