<svg xmlns="http://www.w3.org/2000/svg" xmlns:xlink="http://www.w3.org/1999/xlink" width="100%" height="100%" version="1.1" viewBox="0 0 630 630" xml:space="preserve" style="fill-rule:evenodd;clip-rule:evenodd;stroke-linejoin:round;stroke-miterlimit:2"><g transform="matrix(1,0,0,1,-1345,-949)"><g id="Logo" transform="matrix(0.627529,0,0,0.969818,1345,949)"><rect width="1003.94" height="649.606" x="0" y="0" style="fill:#0080ff"/><g><path d="M1001.16,606.545L994.025,606.545L994.025,613.698L991.242,613.698L991.242,606.545L984.089,606.545L984.089,603.762L991.242,603.762L991.242,596.609L994.025,596.609L994.025,603.762L999.804,603.762L1001.16,606.545ZM1003.47,596.609L1000.18,596.609L1008.52,613.698L1011.8,613.698L1003.47,596.609Z" transform="matrix(23.093,0,0,14.9425,-22543.6,-8717.72)" style="fill:#fff;fill-rule:nonzero"/></g></g></g></svg>