<svg xmlns="http://www.w3.org/2000/svg" xmlns:xlink="http://www.w3.org/1999/xlink" width="256" height="260" preserveAspectRatio="xMidYMid" version="1.1" viewBox="0 0 256 260"><defs><linearGradient id="linearGradient-1" x1="0%" x2="100%" y1="50%" y2="50%"><stop offset="0%" stop-color="#40AFD7"/><stop offset="100%" stop-color="#3E8CD7"/></linearGradient></defs><g><path fill="url(#linearGradient-1)" d="M244.736,0 L11.264,0 C5.12,0 0,5.12 0,11.52 L0,248.32 C0,254.72 5.12,259.84 11.264,259.84 L244.736,259.84 C250.88,259.84 256,254.72 256,248.32 L256,11.52 C256,5.12 250.88,0 244.736,0 L244.736,0 Z M163.328,222.208 L108.544,147.968 L94.464,165.12 L94.464,222.208 L57.088,222.208 L57.088,37.888 L94.208,37.888 L94.208,120.32 L158.208,37.888 L205.568,37.888 L133.888,124.16 L210.688,222.208 L163.328,222.208 L163.328,222.208 Z"/></g></svg>