<svg xmlns="http://www.w3.org/2000/svg" xmlns:xlink="http://www.w3.org/1999/xlink" width="256" height="425" preserveAspectRatio="xMidYMid" version="1.1" viewBox="0 0 256 425"><defs><linearGradient id="linearGradient-1" x1="50%" x2="50%" y1="-352.926%" y2="96.718%"><stop offset="0%" stop-color="#002E3B"/><stop offset="100%" stop-color="#002639"/></linearGradient><linearGradient id="linearGradient-2" x1="50%" x2="50%" y1="-2.808%" y2="428.759%"><stop offset="0%" stop-color="#002E3B"/><stop offset="100%" stop-color="#002639"/></linearGradient><radialGradient id="radialGradient-3" cx="16.423%" cy="143%" r="295.571%" fx="16.423%" fy="143%"><stop offset="0%" stop-color="#00BC85"/><stop offset="100%" stop-color="#149D91"/></radialGradient><radialGradient id="radialGradient-4" cx="16.423%" cy="-43%" r="357.004%" fx="16.423%" fy="-43%"><stop offset="0%" stop-color="#00BC85"/><stop offset="100%" stop-color="#149D91"/></radialGradient><radialGradient id="radialGradient-5" cx="11.467%" cy="-40.458%" r="343.189%" fx="11.467%" fy="-40.458%"><stop offset="0%" stop-color="#004473"/><stop offset="100%" stop-color="#00345F"/></radialGradient></defs><g><path fill="url(#linearGradient-1)" d="M65.6992339,330.300644 L0.107733463,362.384436 L127.400289,424.384842 L255.039336,362.18981 L189.28052,329.651265 L127.352045,360.40471 L65.6992339,330.300644 Z"/><path fill="url(#linearGradient-2)" d="M57.6019991,98.1748765 L57.6019991,98.1541795 L127.531267,64.0476413 L197.46571,98.1541795 L255.003891,62.1986373 L127.484698,0 L0,62.1796642 L0,62.2348584 L57.5537042,98.1990237 L57.6019991,98.1748765 L57.6019991,98.1748765 Z"/><path fill="url(#radialGradient-3)" d="M0.15618046,298.428426 L63.071162,267.624645 L127.784793,299.667263 L0.15618046,362.461971 L0.15618046,298.428426 Z"/><path fill="url(#radialGradient-4)" d="M196.677541,99.4103235 C196.67754,132.999495 196.677539,200.177839 196.677539,200.177839 L126.336262,234.601641 L191.022434,266.940614 L254.000917,236.143726 L254.00091,62.1907831 L196.677541,98.1665853 L196.677541,99.4103235 Z"/><path fill="url(#radialGradient-5)" d="M255.003891,298.216498 L57.5889764,199.96591 L57.5889774,98.1815418 L1.42108547e-14,62.2302408 L1.42108547e-14,63.1375243 L1.42108547e-14,235.931797 L255.003891,362.253488 L255.003891,298.216498 Z"/></g></svg>