<svg xmlns="http://www.w3.org/2000/svg" width="200" height="112" version="1.1"><rect width="200" height="112" x="0" fill="#9c0042"/><polygon fill="#ffe38c" points="0 0 65 0 45 45 0 45"/><polygon fill="#ffe38c" points="0 45 30 78 15 112 0 112"/><polygon fill="#ffae63" points="65 0 110 0 90 45 45 45"/><polygon fill="#f76d42" points="110 0 155 0 135 45 90 45"/><polygon fill="#d63c4a" points="155 0 200 0 180 45 135 45"/><polygon fill="#ffae63" points="0 45 45 45 75 78 60 112 15 112 30 78"/><polygon fill="#f76d42" points="45 45 90 45 120 78 105 112 60 112 75 78"/><polygon fill="#d63c4a" points="90 45 135 45 165 78 150 112 105 112 120 78"/></svg>